<?xml version="1.0" encoding="UTF-8" standalone="no"?>
<!-- Created with Inkscape (http://www.inkscape.org/) -->

<svg
   width="68.15744mm"
   height="66.979301mm"
   viewBox="0 0 68.157442 66.979301"
   version="1.1"
   id="svg5"
   sodipodi:docname="GWyaIgMISS.svg"
   inkscape:version="1.2.2 (b0a84865, 2022-12-01)"
   xmlns:inkscape="http://www.inkscape.org/namespaces/inkscape"
   xmlns:sodipodi="http://sodipodi.sourceforge.net/DTD/sodipodi-0.dtd"
   xmlns="http://www.w3.org/2000/svg"
   xmlns:svg="http://www.w3.org/2000/svg"
   xmlns:ns37="http://www.iki.fi/pav/software/textext/">
  <sodipodi:namedview
     id="namedview7"
     pagecolor="#ffffff"
     bordercolor="#000000"
     borderopacity="0.25"
     inkscape:showpageshadow="2"
     inkscape:pageopacity="0.0"
     inkscape:pagecheckerboard="0"
     inkscape:deskcolor="#d1d1d1"
     inkscape:document-units="mm"
     showgrid="false"
     inkscape:zoom="2.225077"
     inkscape:cx="75.278293"
     inkscape:cy="133.70324"
     inkscape:window-width="1440"
     inkscape:window-height="847"
     inkscape:window-x="0"
     inkscape:window-y="25"
     inkscape:window-maximized="1"
     inkscape:current-layer="layer1" />
  <defs
     id="defs2">
    <marker
       style="overflow:visible"
       id="TriangleStart"
       refX="0"
       refY="0"
       orient="auto-start-reverse"
       inkscape:stockid="TriangleStart"
       markerWidth="5.3244081"
       markerHeight="6.155385"
       viewBox="0 0 5.3244081 6.1553851"
       inkscape:isstock="true"
       inkscape:collect="always"
       preserveAspectRatio="xMidYMid">
      <path
         transform="scale(0.5)"
         style="fill:context-stroke;fill-rule:evenodd;stroke:context-stroke;stroke-width:1pt"
         d="M 5.77,0 -2.88,5 V -5 Z"
         id="path135" />
    </marker>
  </defs>
  <g
     inkscape:label="Layer 1"
     inkscape:groupmode="layer"
     id="layer1"
     transform="translate(-129.26999,-97.67007)">
    <text
       xml:space="preserve"
       style="font-size:2.02148px;opacity:0.509434;fill:#ff0000;stroke:#ff0000;stroke-width:0.264999;stroke-linecap:round;stroke-linejoin:round"
       x="127.58392"
       y="147.90718"
       id="text2026"><tspan
         sodipodi:role="line"
         id="tspan2024"
         style="stroke-width:0.265"
         x="127.58392"
         y="147.90718" /></text>
    <g
       transform="matrix(0.86646277,0,0,0.86650599,133.40006,97.67007)"
       ns37:version="1.8.2"
       ns37:texconverter="pdflatex"
       ns37:pdfconverter="inkscape"
       ns37:text="\\begin{tabular}{lr}\n{} &amp;  temperatures \\\\\n0 &amp;          97.5 \\\\\n1 &amp;          98.2 \\\\\n2 &amp;          99.5 \\\\\n3 &amp;          98.1 \\\\\n4 &amp;          98.7 \\\\\n\\end{tabular}"
       ns37:preamble="/Users/thomasnield/Library/Application Support/org.inkscape.Inkscape/config/inkscape/extensions/textext/default_packages.tex"
       ns37:scale="1.0"
       ns37:alignment="middle center"
       ns37:stroke-to-path="0"
       ns37:jacobian_sqrt="0.352778"
       id="g1580"
       style="stroke-width:0.407137">
      <defs
         id="id-fc63f4d5-b7d7-4ec5-bd08-723f6ad8fc3c">
        <g
           id="id-f9bda48a-9a66-4c13-9780-aecf47c8142a">
          <g
             id="id-ac64b0ef-b93d-4676-817b-32d8211d28f9" />
          <g
             id="id-32e800c9-314d-4ccf-9c16-71e361273dca">
            <path
               d="m 1.71875,-3.984375 h 1.4375 v -0.3125 H 1.71875 V -6.125 h -0.25 c 0,0.8125 -0.296875,1.875 -1.28125,1.921875 v 0.21875 h 0.84375 v 2.75 c 0,1.21875 0.9375,1.34375 1.296875,1.34375 0.703125,0 0.984375,-0.703125 0.984375,-1.34375 v -0.5625 h -0.25 V -1.25 c 0,0.734375 -0.296875,1.109375 -0.671875,1.109375 -0.671875,0 -0.671875,-0.90625 -0.671875,-1.078125 z m 0,0"
               id="id-19135c93-ca1f-4f7f-b945-9d41a9d392a2" />
          </g>
          <g
             id="id-8ea39c58-ed8f-4581-b196-c0485176cb2b">
            <path
               d="M 1.109375,-2.515625 C 1.171875,-4 2.015625,-4.25 2.359375,-4.25 c 1.015625,0 1.125,1.34375 1.125,1.734375 z m 0,0.21875 h 2.78125 c 0.21875,0 0.25,0 0.25,-0.21875 0,-0.984375 -0.546875,-1.953125 -1.78125,-1.953125 -1.15625,0 -2.078125,1.03125 -2.078125,2.28125 0,1.328125 1.046875,2.296875 2.1875,2.296875 C 3.6875,0.109375 4.140625,-1 4.140625,-1.1875 4.140625,-1.28125 4.0625,-1.3125 4,-1.3125 c -0.078125,0 -0.109375,0.0625 -0.125,0.140625 -0.34375,1.03125 -1.25,1.03125 -1.34375,1.03125 -0.5,0 -0.890625,-0.296875 -1.125,-0.671875 -0.296875,-0.46875 -0.296875,-1.125 -0.296875,-1.484375 z m 0,0"
               id="id-bfc80626-7db1-4f9a-98e9-9a644e9e5eee" />
          </g>
          <g
             id="id-46d77ae5-b54b-4ee0-b694-93e760e42ffd">
            <path
               d="M 1.09375,-3.421875 V -0.75 c 0,0.4375 -0.109375,0.4375 -0.78125,0.4375 V 0 c 0.359375,-0.015625 0.859375,-0.03125 1.140625,-0.03125 0.25,0 0.765625,0.015625 1.109375,0.03125 v -0.3125 c -0.671875,0 -0.78125,0 -0.78125,-0.4375 V -2.59375 C 1.78125,-3.625 2.5,-4.1875 3.125,-4.1875 c 0.640625,0 0.75,0.53125 0.75,1.109375 V -0.75 c 0,0.4375 -0.109375,0.4375 -0.78125,0.4375 V 0 c 0.34375,-0.015625 0.859375,-0.03125 1.125,-0.03125 0.25,0 0.78125,0.015625 1.109375,0.03125 v -0.3125 c -0.65625,0 -0.765625,0 -0.765625,-0.4375 v -1.84375 c 0,-1.03125 0.703125,-1.59375 1.34375,-1.59375 0.625,0 0.734375,0.53125 0.734375,1.109375 V -0.75 c 0,0.4375 -0.109375,0.4375 -0.78125,0.4375 V 0 c 0.34375,-0.015625 0.859375,-0.03125 1.125,-0.03125 0.265625,0 0.78125,0.015625 1.125,0.03125 v -0.3125 c -0.515625,0 -0.765625,0 -0.78125,-0.296875 v -1.90625 c 0,-0.859375 0,-1.15625 -0.3125,-1.515625 -0.140625,-0.171875 -0.46875,-0.375 -1.046875,-0.375 -0.828125,0 -1.28125,0.59375 -1.4375,0.984375 C 4.390625,-4.296875 3.65625,-4.40625 3.203125,-4.40625 2.46875,-4.40625 2,-3.984375 1.71875,-3.359375 V -4.40625 L 0.3125,-4.296875 v 0.3125 c 0.703125,0 0.78125,0.0625 0.78125,0.5625 z m 0,0"
               id="id-539dd737-c8b0-4020-ad80-5452f317ef20" />
          </g>
          <g
             id="id-096e4787-3e6a-43e5-b738-c4762ac6d218">
            <path
               d="m 1.71875,-3.75 v -0.65625 l -1.4375,0.109375 v 0.3125 c 0.703125,0 0.78125,0.0625 0.78125,0.5 v 4.65625 C 1.0625,1.625 0.953125,1.625 0.28125,1.625 V 1.9375 C 0.625,1.921875 1.140625,1.90625 1.390625,1.90625 c 0.28125,0 0.78125,0.015625 1.125,0.03125 V 1.625 C 1.859375,1.625 1.75,1.625 1.75,1.171875 V -0.59375 c 0.046875,0.171875 0.46875,0.703125 1.21875,0.703125 1.1875,0 2.21875,-0.984375 2.21875,-2.265625 0,-1.265625 -0.953125,-2.25 -2.078125,-2.25 -0.78125,0 -1.203125,0.4375 -1.390625,0.65625 z M 1.75,-1.140625 v -2.21875 C 2.03125,-3.875 2.515625,-4.15625 3.03125,-4.15625 c 0.734375,0 1.328125,0.875 1.328125,2 0,1.203125 -0.6875,2.046875 -1.421875,2.046875 -0.40625,0 -0.78125,-0.203125 -1.046875,-0.609375 C 1.75,-0.921875 1.75,-0.9375 1.75,-1.140625 Z m 0,0"
               id="id-ff08e073-3cb0-4055-8b6c-0f8517b24b91" />
          </g>
          <g
             id="id-c59535fc-f339-4ad2-9c4e-983b280a6c9b">
            <path
               d="M 1.671875,-3.3125 V -4.40625 L 0.28125,-4.296875 v 0.3125 c 0.703125,0 0.78125,0.0625 0.78125,0.5625 V -0.75 c 0,0.4375 -0.109375,0.4375 -0.78125,0.4375 V 0 c 0.390625,-0.015625 0.859375,-0.03125 1.140625,-0.03125 0.390625,0 0.859375,0 1.265625,0.03125 V -0.3125 H 2.46875 c -0.734375,0 -0.75,-0.109375 -0.75,-0.46875 V -2.3125 c 0,-0.984375 0.421875,-1.875 1.171875,-1.875 0.0625,0 0.09375,0 0.109375,0.015625 -0.03125,0 -0.234375,0.125 -0.234375,0.390625 0,0.265625 0.21875,0.421875 0.4375,0.421875 0.171875,0 0.421875,-0.125 0.421875,-0.4375 0,-0.3125 -0.3125,-0.609375 -0.734375,-0.609375 -0.734375,0 -1.09375,0.671875 -1.21875,1.09375 z m 0,0"
               id="id-2886cc5b-16a9-45f6-ae18-8f4b284272b1" />
          </g>
          <g
             id="id-0e743c4d-3d0e-405c-b651-79cfa75c5e3d">
            <path
               d="m 3.3125,-0.75 c 0.046875,0.390625 0.3125,0.8125 0.78125,0.8125 0.21875,0 0.828125,-0.140625 0.828125,-0.953125 v -0.5625 h -0.25 v 0.5625 c 0,0.578125 -0.25,0.640625 -0.359375,0.640625 -0.328125,0 -0.375,-0.453125 -0.375,-0.5 v -1.984375 c 0,-0.421875 0,-0.8125 -0.359375,-1.1875 C 3.1875,-4.3125 2.6875,-4.46875 2.21875,-4.46875 c -0.828125,0 -1.515625,0.46875 -1.515625,1.125 0,0.296875 0.203125,0.46875 0.46875,0.46875 0.28125,0 0.453125,-0.203125 0.453125,-0.453125 0,-0.125 -0.046875,-0.453125 -0.515625,-0.453125 C 1.390625,-4.140625 1.875,-4.25 2.1875,-4.25 c 0.5,0 1.0625,0.390625 1.0625,1.28125 v 0.359375 c -0.515625,0.03125 -1.203125,0.0625 -1.828125,0.359375 -0.75,0.34375 -1,0.859375 -1,1.296875 0,0.8125 0.96875,1.0625 1.59375,1.0625 0.65625,0 1.109375,-0.40625 1.296875,-0.859375 z M 3.25,-2.390625 v 1 c 0,0.9375 -0.71875,1.28125 -1.171875,1.28125 -0.484375,0 -0.890625,-0.34375 -0.890625,-0.84375 0,-0.546875 0.421875,-1.375 2.0625,-1.4375 z m 0,0"
               id="id-ab0aaf66-aaeb-4961-8b4b-cf94bba3d624" />
          </g>
          <g
             id="id-ccdded14-e965-4895-bbd3-848fdc30a453">
            <path
               d="M 3.890625,-0.78125 V 0.109375 L 5.328125,0 V -0.3125 C 4.640625,-0.3125 4.5625,-0.375 4.5625,-0.875 v -3.53125 l -1.46875,0.109375 v 0.3125 c 0.6875,0 0.78125,0.0625 0.78125,0.5625 v 1.765625 c 0,0.875 -0.484375,1.546875 -1.21875,1.546875 -0.828125,0 -0.875,-0.46875 -0.875,-0.984375 v -3.3125 L 0.3125,-4.296875 v 0.3125 c 0.78125,0 0.78125,0.03125 0.78125,0.90625 v 1.5 c 0,0.78125 0,1.6875 1.515625,1.6875 0.5625,0 1,-0.28125 1.28125,-0.890625 z m 0,0"
               id="id-791b032c-62e7-4a69-b4aa-2d84d552bc4f" />
          </g>
          <g
             id="id-3c49d533-1a72-47fb-a0c1-4fd7a39e1e51">
            <path
               d="m 2.078125,-1.9375 c 0.21875,0.046875 1.03125,0.203125 1.03125,0.921875 0,0.5 -0.34375,0.90625 -1.125,0.90625 -0.84375,0 -1.203125,-0.5625 -1.390625,-1.421875 C 0.5625,-1.65625 0.5625,-1.6875 0.453125,-1.6875 c -0.125,0 -0.125,0.0625 -0.125,0.234375 V -0.125 c 0,0.171875 0,0.234375 0.109375,0.234375 0.046875,0 0.0625,-0.015625 0.25,-0.203125 0.015625,-0.015625 0.015625,-0.03125 0.203125,-0.21875 0.4375,0.40625 0.890625,0.421875 1.09375,0.421875 1.140625,0 1.609375,-0.671875 1.609375,-1.390625 0,-0.515625 -0.296875,-0.828125 -0.421875,-0.9375 C 2.84375,-2.546875 2.453125,-2.625 2.03125,-2.703125 1.46875,-2.8125 0.8125,-2.9375 0.8125,-3.515625 c 0,-0.359375 0.25,-0.765625 1.109375,-0.765625 1.09375,0 1.15625,0.90625 1.171875,1.203125 0,0.09375 0.09375,0.09375 0.109375,0.09375 0.140625,0 0.140625,-0.046875 0.140625,-0.234375 v -1.015625 c 0,-0.15625 0,-0.234375 -0.109375,-0.234375 -0.046875,0 -0.078125,0 -0.203125,0.125 -0.03125,0.03125 -0.125,0.125 -0.171875,0.15625 -0.375,-0.28125 -0.78125,-0.28125 -0.9375,-0.28125 -1.21875,0 -1.59375,0.671875 -1.59375,1.234375 0,0.34375 0.15625,0.625 0.421875,0.84375 0.328125,0.25 0.609375,0.3125 1.328125,0.453125 z m 0,0"
               id="id-56d4325b-d686-44a5-9ac9-8cae4e477f8e" />
          </g>
          <g
             id="id-30e82f95-34f8-4e45-aeab-4a11ce03e9ff">
            <path
               d="m 4.578125,-3.1875 c 0,-0.796875 -0.046875,-1.59375 -0.390625,-2.328125 -0.453125,-0.96875 -1.28125,-1.125 -1.6875,-1.125 -0.609375,0 -1.328125,0.265625 -1.75,1.1875 -0.3125,0.6875 -0.359375,1.46875 -0.359375,2.265625 0,0.75 0.03125,1.640625 0.453125,2.40625 0.421875,0.796875 1.15625,1 1.640625,1 0.53125,0 1.296875,-0.203125 1.734375,-1.15625 0.3125,-0.6875 0.359375,-1.46875 0.359375,-2.25 z M 2.484375,0 C 2.09375,0 1.5,-0.25 1.328125,-1.203125 1.21875,-1.796875 1.21875,-2.71875 1.21875,-3.3125 c 0,-0.640625 0,-1.296875 0.078125,-1.828125 0.1875,-1.1875 0.9375,-1.28125 1.1875,-1.28125 0.328125,0 0.984375,0.1875 1.171875,1.171875 0.109375,0.5625 0.109375,1.3125 0.109375,1.9375 0,0.75 0,1.421875 -0.109375,2.0625 C 3.5,-0.296875 2.9375,0 2.484375,0 Z m 0,0"
               id="id-d828c34d-edf6-4a1f-90df-8dcdda418582" />
          </g>
          <g
             id="id-c00b1cc9-4066-4ac5-b1ad-257de7d3a64c">
            <path
               d="m 3.65625,-3.171875 v 0.328125 c 0,2.328125 -1.03125,2.78125 -1.609375,2.78125 -0.171875,0 -0.71875,-0.015625 -0.984375,-0.359375 0.4375,0 0.515625,-0.28125 0.515625,-0.453125 0,-0.3125 -0.234375,-0.453125 -0.453125,-0.453125 -0.15625,0 -0.453125,0.078125 -0.453125,0.46875 0,0.671875 0.53125,1.078125 1.375,1.078125 1.296875,0 2.515625,-1.359375 2.515625,-3.5 0,-2.6875 -1.15625,-3.359375 -2.046875,-3.359375 -0.546875,0 -1.03125,0.1875 -1.453125,0.625 -0.421875,0.453125 -0.640625,0.875 -0.640625,1.625 0,1.234375 0.875,2.21875 1.984375,2.21875 0.609375,0 1.015625,-0.421875 1.25,-1 z M 2.421875,-2.40625 c -0.15625,0 -0.625,0 -0.921875,-0.625 -0.1875,-0.375 -0.1875,-0.859375 -0.1875,-1.359375 0,-0.53125 0,-1 0.21875,-1.375 0.265625,-0.5 0.640625,-0.625 0.984375,-0.625 0.46875,0 0.796875,0.34375 0.96875,0.78125 0.109375,0.328125 0.15625,0.953125 0.15625,1.40625 0,0.828125 -0.34375,1.796875 -1.21875,1.796875 z m 0,0"
               id="id-bdaa9406-21ad-45c3-b87e-5aa3277cf4ae" />
          </g>
          <g
             id="id-94f6d4cb-c450-41c5-bad7-110eb85b178d">
            <path
               d="m 4.75,-6.078125 c 0.078125,-0.109375 0.078125,-0.125 0.078125,-0.34375 H 2.40625 c -1.203125,0 -1.234375,-0.125 -1.265625,-0.3125 h -0.25 L 0.5625,-4.6875 h 0.25 c 0.03125,-0.15625 0.109375,-0.78125 0.25,-0.90625 0.0625,-0.0625 0.84375,-0.0625 0.96875,-0.0625 h 2.0625 C 3.984375,-5.5 3.203125,-4.40625 2.984375,-4.078125 2.078125,-2.734375 1.75,-1.34375 1.75,-0.328125 c 0,0.09375 0,0.546875 0.46875,0.546875 0.453125,0 0.453125,-0.453125 0.453125,-0.546875 V -0.84375 c 0,-0.546875 0.03125,-1.09375 0.109375,-1.625 0.046875,-0.234375 0.171875,-1.09375 0.625,-1.703125 z m 0,0"
               id="id-d2008735-d2c5-46ab-a269-8feaabad08a9" />
          </g>
          <g
             id="id-0d19a7ae-1e9d-4df5-9ab4-dc9cd5699050">
            <path
               d="m 1.90625,-0.53125 c 0,-0.28125 -0.234375,-0.53125 -0.515625,-0.53125 -0.296875,0 -0.53125,0.25 -0.53125,0.53125 C 0.859375,-0.234375 1.09375,0 1.390625,0 1.671875,0 1.90625,-0.234375 1.90625,-0.53125 Z m 0,0"
               id="id-3c429552-aac4-493e-9d34-e05603ef8655" />
          </g>
          <g
             id="id-23c7c59c-8be9-4654-98cc-f5fa4e4f21a8">
            <path
               d="m 4.46875,-2 c 0,-1.1875 -0.8125,-2.1875 -1.890625,-2.1875 -0.46875,0 -0.90625,0.15625 -1.265625,0.515625 V -5.625 c 0.203125,0.0625 0.53125,0.125 0.84375,0.125 1.234375,0 1.9375,-0.90625 1.9375,-1.03125 0,-0.0625 -0.03125,-0.109375 -0.109375,-0.109375 0,0 -0.03125,0 -0.078125,0.03125 C 3.703125,-6.515625 3.21875,-6.3125 2.546875,-6.3125 2.15625,-6.3125 1.6875,-6.390625 1.21875,-6.59375 1.140625,-6.625 1.125,-6.625 1.109375,-6.625 1,-6.625 1,-6.546875 1,-6.390625 V -3.4375 c 0,0.171875 0,0.25 0.140625,0.25 0.078125,0 0.09375,-0.015625 0.140625,-0.078125 C 1.390625,-3.421875 1.75,-3.96875 2.5625,-3.96875 c 0.515625,0 0.765625,0.453125 0.84375,0.640625 0.15625,0.375 0.1875,0.75 0.1875,1.25 0,0.359375 0,0.953125 -0.25,1.375 C 3.109375,-0.3125 2.734375,-0.0625 2.28125,-0.0625 c -0.71875,0 -1.296875,-0.53125 -1.46875,-1.109375 0.03125,0 0.0625,0.015625 0.171875,0.015625 0.328125,0 0.5,-0.25 0.5,-0.484375 0,-0.25 -0.171875,-0.5 -0.5,-0.5 C 0.84375,-2.140625 0.5,-2.0625 0.5,-1.609375 0.5,-0.75 1.1875,0.21875 2.296875,0.21875 3.453125,0.21875 4.46875,-0.734375 4.46875,-2 Z m 0,0"
               id="id-b5f9c486-9924-4852-8588-94f9f17c6970" />
          </g>
          <g
             id="id-81413977-50e9-4b57-b452-0f975e02b667">
            <path
               d="m 2.9375,-6.375 c 0,-0.25 0,-0.265625 -0.234375,-0.265625 C 2.078125,-6 1.203125,-6 0.890625,-6 v 0.3125 c 0.203125,0 0.78125,0 1.296875,-0.265625 v 5.171875 c 0,0.359375 -0.03125,0.46875 -0.921875,0.46875 h -0.3125 V 0 c 0.34375,-0.03125 1.203125,-0.03125 1.609375,-0.03125 0.390625,0 1.265625,0 1.609375,0.03125 v -0.3125 h -0.3125 c -0.90625,0 -0.921875,-0.109375 -0.921875,-0.46875 z m 0,0"
               id="id-3046f470-4647-4a9e-988f-d5360bd464e4" />
          </g>
          <g
             id="id-84ddfbae-616d-450b-88ae-0ced915aa459">
            <path
               d="m 1.625,-4.5625 c -0.453125,-0.296875 -0.5,-0.625 -0.5,-0.796875 0,-0.609375 0.65625,-1.03125 1.359375,-1.03125 0.71875,0 1.359375,0.515625 1.359375,1.234375 0,0.578125 -0.390625,1.046875 -0.984375,1.390625 z m 1.453125,0.953125 C 3.796875,-3.984375 4.28125,-4.5 4.28125,-5.15625 c 0,-0.921875 -0.875,-1.484375 -1.78125,-1.484375 -1,0 -1.8125,0.734375 -1.8125,1.671875 0,0.171875 0.015625,0.625 0.4375,1.09375 0.109375,0.109375 0.484375,0.359375 0.734375,0.53125 C 1.28125,-3.046875 0.421875,-2.5 0.421875,-1.5 c 0,1.046875 1.015625,1.71875 2.0625,1.71875 1.125,0 2.078125,-0.828125 2.078125,-1.890625 0,-0.359375 -0.109375,-0.8125 -0.5,-1.234375 C 3.875,-3.109375 3.71875,-3.203125 3.078125,-3.609375 Z m -1,0.421875 1.234375,0.78125 c 0.28125,0.1875 0.75,0.484375 0.75,1.09375 0,0.734375 -0.75,1.25 -1.5625,1.25 -0.859375,0 -1.578125,-0.609375 -1.578125,-1.4375 0,-0.578125 0.3125,-1.21875 1.15625,-1.6875 z m 0,0"
               id="id-17e59929-1ac2-446d-83af-adaa9bec5988" />
          </g>
          <g
             id="id-7c31d0f7-55c8-40a0-82cf-95bf4fc9e6f9">
            <path
               d="m 1.265625,-0.765625 1.0625,-1.03125 c 1.546875,-1.375 2.140625,-1.90625 2.140625,-2.90625 0,-1.140625 -0.890625,-1.9375 -2.109375,-1.9375 -1.125,0 -1.859375,0.921875 -1.859375,1.8125 0,0.546875 0.5,0.546875 0.53125,0.546875 0.171875,0 0.515625,-0.109375 0.515625,-0.53125 0,-0.25 -0.1875,-0.515625 -0.53125,-0.515625 -0.078125,0 -0.09375,0 -0.125,0.015625 0.21875,-0.65625 0.765625,-1.015625 1.34375,-1.015625 0.90625,0 1.328125,0.8125 1.328125,1.625 C 3.5625,-3.90625 3.078125,-3.125 2.515625,-2.5 l -1.90625,2.125 C 0.5,-0.265625 0.5,-0.234375 0.5,0 H 4.203125 L 4.46875,-1.734375 H 4.234375 C 4.171875,-1.4375 4.109375,-1 4,-0.84375 3.9375,-0.765625 3.28125,-0.765625 3.0625,-0.765625 Z m 0,0"
               id="id-245b3b27-381e-4c70-a5e2-6fc3f3beff82" />
          </g>
          <g
             id="id-dca976f3-0f9f-4275-9d24-893177adeba1">
            <path
               d="m 2.890625,-3.515625 c 0.8125,-0.265625 1.390625,-0.953125 1.390625,-1.75 0,-0.8125 -0.875,-1.375 -1.828125,-1.375 -1,0 -1.765625,0.59375 -1.765625,1.359375 0,0.328125 0.21875,0.515625 0.515625,0.515625 0.296875,0 0.5,-0.21875 0.5,-0.515625 0,-0.484375 -0.46875,-0.484375 -0.609375,-0.484375 0.296875,-0.5 0.953125,-0.625 1.3125,-0.625 0.421875,0 0.96875,0.21875 0.96875,1.109375 0,0.125 -0.03125,0.703125 -0.28125,1.140625 C 2.796875,-3.65625 2.453125,-3.625 2.203125,-3.625 2.125,-3.609375 1.890625,-3.59375 1.8125,-3.59375 c -0.078125,0.015625 -0.140625,0.03125 -0.140625,0.125 0,0.109375 0.0625,0.109375 0.234375,0.109375 h 0.4375 c 0.8125,0 1.1875,0.671875 1.1875,1.65625 0,1.359375 -0.6875,1.640625 -1.125,1.640625 -0.4375,0 -1.1875,-0.171875 -1.53125,-0.75 0.34375,0.046875 0.65625,-0.171875 0.65625,-0.546875 0,-0.359375 -0.265625,-0.5625 -0.546875,-0.5625 -0.25,0 -0.5625,0.140625 -0.5625,0.578125 0,0.90625 0.921875,1.5625 2.015625,1.5625 1.21875,0 2.125,-0.90625 2.125,-1.921875 0,-0.8125 -0.640625,-1.59375 -1.671875,-1.8125 z m 0,0"
               id="id-ca7f267b-8e84-469e-ab18-f4f5db5f9099" />
          </g>
          <g
             id="id-be13e416-71d1-4332-b033-5831984e7235">
            <path
               d="m 2.9375,-1.640625 v 0.859375 c 0,0.359375 -0.03125,0.46875 -0.765625,0.46875 H 1.96875 V 0 C 2.375,-0.03125 2.890625,-0.03125 3.3125,-0.03125 c 0.421875,0 0.9375,0 1.359375,0.03125 v -0.3125 h -0.21875 c -0.734375,0 -0.75,-0.109375 -0.75,-0.46875 V -1.640625 H 4.6875 v -0.3125 H 3.703125 v -4.53125 c 0,-0.203125 0,-0.265625 -0.171875,-0.265625 -0.078125,0 -0.109375,0 -0.1875,0.125 l -3.0625,4.671875 v 0.3125 z m 0.046875,-0.3125 H 0.5625 l 2.421875,-3.71875 z m 0,0"
               id="id-f179b817-3eef-4618-ae66-c3cb4b8a0556" />
          </g>
        </g>
      </defs>
      <g
         fill="#000000"
         fill-opacity="1"
         id="id-a3e8d9fc-fa12-4ab8-a978-d37461b1783b"
         transform="translate(-154.971,-127.046)"
         style="stroke-width:0.105538">
        <g
           transform="translate(171.626,133.171)"
           id="g1458"
           style="stroke-width:0.407137">
          <path
             d="m 1.71875,-3.984375 h 1.4375 v -0.3125 H 1.71875 V -6.125 h -0.25 c 0,0.8125 -0.296875,1.875 -1.28125,1.921875 v 0.21875 h 0.84375 v 2.75 c 0,1.21875 0.9375,1.34375 1.296875,1.34375 0.703125,0 0.984375,-0.703125 0.984375,-1.34375 v -0.5625 h -0.25 V -1.25 c 0,0.734375 -0.296875,1.109375 -0.671875,1.109375 -0.671875,0 -0.671875,-0.90625 -0.671875,-1.078125 z m 0,0"
             id="id-54efc09a-ffd5-4246-b30e-86c01918546a"
             style="stroke-width:0.407137" />
        </g>
        <g
           transform="translate(175.5,133.171)"
           id="g1461"
           style="stroke-width:0.407137">
          <path
             d="M 1.109375,-2.515625 C 1.171875,-4 2.015625,-4.25 2.359375,-4.25 c 1.015625,0 1.125,1.34375 1.125,1.734375 z m 0,0.21875 h 2.78125 c 0.21875,0 0.25,0 0.25,-0.21875 0,-0.984375 -0.546875,-1.953125 -1.78125,-1.953125 -1.15625,0 -2.078125,1.03125 -2.078125,2.28125 0,1.328125 1.046875,2.296875 2.1875,2.296875 C 3.6875,0.109375 4.140625,-1 4.140625,-1.1875 4.140625,-1.28125 4.0625,-1.3125 4,-1.3125 c -0.078125,0 -0.109375,0.0625 -0.125,0.140625 -0.34375,1.03125 -1.25,1.03125 -1.34375,1.03125 -0.5,0 -0.890625,-0.296875 -1.125,-0.671875 -0.296875,-0.46875 -0.296875,-1.125 -0.296875,-1.484375 z m 0,0"
             id="id-79ae5092-6a5b-43ae-92c6-8b41d2b8f6cd"
             style="stroke-width:0.407137" />
        </g>
        <g
           transform="translate(179.928,133.171)"
           id="g1464"
           style="stroke-width:0.407137">
          <path
             d="M 1.09375,-3.421875 V -0.75 c 0,0.4375 -0.109375,0.4375 -0.78125,0.4375 V 0 c 0.359375,-0.015625 0.859375,-0.03125 1.140625,-0.03125 0.25,0 0.765625,0.015625 1.109375,0.03125 v -0.3125 c -0.671875,0 -0.78125,0 -0.78125,-0.4375 V -2.59375 C 1.78125,-3.625 2.5,-4.1875 3.125,-4.1875 c 0.640625,0 0.75,0.53125 0.75,1.109375 V -0.75 c 0,0.4375 -0.109375,0.4375 -0.78125,0.4375 V 0 c 0.34375,-0.015625 0.859375,-0.03125 1.125,-0.03125 0.25,0 0.78125,0.015625 1.109375,0.03125 v -0.3125 c -0.65625,0 -0.765625,0 -0.765625,-0.4375 v -1.84375 c 0,-1.03125 0.703125,-1.59375 1.34375,-1.59375 0.625,0 0.734375,0.53125 0.734375,1.109375 V -0.75 c 0,0.4375 -0.109375,0.4375 -0.78125,0.4375 V 0 c 0.34375,-0.015625 0.859375,-0.03125 1.125,-0.03125 0.265625,0 0.78125,0.015625 1.125,0.03125 v -0.3125 c -0.515625,0 -0.765625,0 -0.78125,-0.296875 v -1.90625 c 0,-0.859375 0,-1.15625 -0.3125,-1.515625 -0.140625,-0.171875 -0.46875,-0.375 -1.046875,-0.375 -0.828125,0 -1.28125,0.59375 -1.4375,0.984375 C 4.390625,-4.296875 3.65625,-4.40625 3.203125,-4.40625 2.46875,-4.40625 2,-3.984375 1.71875,-3.359375 V -4.40625 L 0.3125,-4.296875 v 0.3125 c 0.703125,0 0.78125,0.0625 0.78125,0.5625 z m 0,0"
             id="id-cc602c3a-f356-4a91-9c2b-990f3ce0b3c8"
             style="stroke-width:0.407137" />
        </g>
        <g
           transform="translate(188.23,133.171)"
           id="g1467"
           style="stroke-width:0.407137">
          <path
             d="m 1.71875,-3.75 v -0.65625 l -1.4375,0.109375 v 0.3125 c 0.703125,0 0.78125,0.0625 0.78125,0.5 v 4.65625 C 1.0625,1.625 0.953125,1.625 0.28125,1.625 V 1.9375 C 0.625,1.921875 1.140625,1.90625 1.390625,1.90625 c 0.28125,0 0.78125,0.015625 1.125,0.03125 V 1.625 C 1.859375,1.625 1.75,1.625 1.75,1.171875 V -0.59375 c 0.046875,0.171875 0.46875,0.703125 1.21875,0.703125 1.1875,0 2.21875,-0.984375 2.21875,-2.265625 0,-1.265625 -0.953125,-2.25 -2.078125,-2.25 -0.78125,0 -1.203125,0.4375 -1.390625,0.65625 z M 1.75,-1.140625 v -2.21875 C 2.03125,-3.875 2.515625,-4.15625 3.03125,-4.15625 c 0.734375,0 1.328125,0.875 1.328125,2 0,1.203125 -0.6875,2.046875 -1.421875,2.046875 -0.40625,0 -0.78125,-0.203125 -1.046875,-0.609375 C 1.75,-0.921875 1.75,-0.9375 1.75,-1.140625 Z m 0,0"
             id="id-59bda52f-dcdc-4a5e-82d0-d46ef6e165d0"
             style="stroke-width:0.407137" />
        </g>
      </g>
      <g
         fill="#000000"
         fill-opacity="1"
         id="id-cbee2816-b25f-427b-8828-0622b13b5500"
         transform="translate(-154.971,-127.046)"
         style="stroke-width:0.105538">
        <g
           transform="translate(194.044,133.171)"
           id="g1471"
           style="stroke-width:0.407137">
          <path
             d="M 1.109375,-2.515625 C 1.171875,-4 2.015625,-4.25 2.359375,-4.25 c 1.015625,0 1.125,1.34375 1.125,1.734375 z m 0,0.21875 h 2.78125 c 0.21875,0 0.25,0 0.25,-0.21875 0,-0.984375 -0.546875,-1.953125 -1.78125,-1.953125 -1.15625,0 -2.078125,1.03125 -2.078125,2.28125 0,1.328125 1.046875,2.296875 2.1875,2.296875 C 3.6875,0.109375 4.140625,-1 4.140625,-1.1875 4.140625,-1.28125 4.0625,-1.3125 4,-1.3125 c -0.078125,0 -0.109375,0.0625 -0.125,0.140625 -0.34375,1.03125 -1.25,1.03125 -1.34375,1.03125 -0.5,0 -0.890625,-0.296875 -1.125,-0.671875 -0.296875,-0.46875 -0.296875,-1.125 -0.296875,-1.484375 z m 0,0"
             id="id-f041fc2e-f5d7-4328-a4f8-82fb24ca67fa"
             style="stroke-width:0.407137" />
        </g>
        <g
           transform="translate(198.471,133.171)"
           id="g1474"
           style="stroke-width:0.407137">
          <path
             d="M 1.671875,-3.3125 V -4.40625 L 0.28125,-4.296875 v 0.3125 c 0.703125,0 0.78125,0.0625 0.78125,0.5625 V -0.75 c 0,0.4375 -0.109375,0.4375 -0.78125,0.4375 V 0 c 0.390625,-0.015625 0.859375,-0.03125 1.140625,-0.03125 0.390625,0 0.859375,0 1.265625,0.03125 V -0.3125 H 2.46875 c -0.734375,0 -0.75,-0.109375 -0.75,-0.46875 V -2.3125 c 0,-0.984375 0.421875,-1.875 1.171875,-1.875 0.0625,0 0.09375,0 0.109375,0.015625 -0.03125,0 -0.234375,0.125 -0.234375,0.390625 0,0.265625 0.21875,0.421875 0.4375,0.421875 0.171875,0 0.421875,-0.125 0.421875,-0.4375 0,-0.3125 -0.3125,-0.609375 -0.734375,-0.609375 -0.734375,0 -1.09375,0.671875 -1.21875,1.09375 z m 0,0"
             id="id-1d73189c-d263-44d3-a259-ac0973094c65"
             style="stroke-width:0.407137" />
        </g>
        <g
           transform="translate(202.374,133.171)"
           id="g1477"
           style="stroke-width:0.407137">
          <path
             d="m 3.3125,-0.75 c 0.046875,0.390625 0.3125,0.8125 0.78125,0.8125 0.21875,0 0.828125,-0.140625 0.828125,-0.953125 v -0.5625 h -0.25 v 0.5625 c 0,0.578125 -0.25,0.640625 -0.359375,0.640625 -0.328125,0 -0.375,-0.453125 -0.375,-0.5 v -1.984375 c 0,-0.421875 0,-0.8125 -0.359375,-1.1875 C 3.1875,-4.3125 2.6875,-4.46875 2.21875,-4.46875 c -0.828125,0 -1.515625,0.46875 -1.515625,1.125 0,0.296875 0.203125,0.46875 0.46875,0.46875 0.28125,0 0.453125,-0.203125 0.453125,-0.453125 0,-0.125 -0.046875,-0.453125 -0.515625,-0.453125 C 1.390625,-4.140625 1.875,-4.25 2.1875,-4.25 c 0.5,0 1.0625,0.390625 1.0625,1.28125 v 0.359375 c -0.515625,0.03125 -1.203125,0.0625 -1.828125,0.359375 -0.75,0.34375 -1,0.859375 -1,1.296875 0,0.8125 0.96875,1.0625 1.59375,1.0625 0.65625,0 1.109375,-0.40625 1.296875,-0.859375 z M 3.25,-2.390625 v 1 c 0,0.9375 -0.71875,1.28125 -1.171875,1.28125 -0.484375,0 -0.890625,-0.34375 -0.890625,-0.84375 0,-0.546875 0.421875,-1.375 2.0625,-1.4375 z m 0,0"
             id="id-f4098526-6549-42e0-9662-52065009d409"
             style="stroke-width:0.407137" />
        </g>
        <g
           transform="translate(207.355,133.171)"
           id="g1480"
           style="stroke-width:0.407137">
          <path
             d="m 1.71875,-3.984375 h 1.4375 v -0.3125 H 1.71875 V -6.125 h -0.25 c 0,0.8125 -0.296875,1.875 -1.28125,1.921875 v 0.21875 h 0.84375 v 2.75 c 0,1.21875 0.9375,1.34375 1.296875,1.34375 0.703125,0 0.984375,-0.703125 0.984375,-1.34375 v -0.5625 h -0.25 V -1.25 c 0,0.734375 -0.296875,1.109375 -0.671875,1.109375 -0.671875,0 -0.671875,-0.90625 -0.671875,-1.078125 z m 0,0"
             id="id-093a58ff-4720-4d19-aab7-3b28541fb440"
             style="stroke-width:0.407137" />
        </g>
        <g
           transform="translate(211.229,133.171)"
           id="g1483"
           style="stroke-width:0.407137">
          <path
             d="M 3.890625,-0.78125 V 0.109375 L 5.328125,0 V -0.3125 C 4.640625,-0.3125 4.5625,-0.375 4.5625,-0.875 v -3.53125 l -1.46875,0.109375 v 0.3125 c 0.6875,0 0.78125,0.0625 0.78125,0.5625 v 1.765625 c 0,0.875 -0.484375,1.546875 -1.21875,1.546875 -0.828125,0 -0.875,-0.46875 -0.875,-0.984375 v -3.3125 L 0.3125,-4.296875 v 0.3125 c 0.78125,0 0.78125,0.03125 0.78125,0.90625 v 1.5 c 0,0.78125 0,1.6875 1.515625,1.6875 0.5625,0 1,-0.28125 1.28125,-0.890625 z m 0,0"
             id="id-2ad73ef0-dc49-4123-858c-29c042264351"
             style="stroke-width:0.407137" />
        </g>
        <g
           transform="translate(216.765,133.171)"
           id="g1486"
           style="stroke-width:0.407137">
          <path
             d="M 1.671875,-3.3125 V -4.40625 L 0.28125,-4.296875 v 0.3125 c 0.703125,0 0.78125,0.0625 0.78125,0.5625 V -0.75 c 0,0.4375 -0.109375,0.4375 -0.78125,0.4375 V 0 c 0.390625,-0.015625 0.859375,-0.03125 1.140625,-0.03125 0.390625,0 0.859375,0 1.265625,0.03125 V -0.3125 H 2.46875 c -0.734375,0 -0.75,-0.109375 -0.75,-0.46875 V -2.3125 c 0,-0.984375 0.421875,-1.875 1.171875,-1.875 0.0625,0 0.09375,0 0.109375,0.015625 -0.03125,0 -0.234375,0.125 -0.234375,0.390625 0,0.265625 0.21875,0.421875 0.4375,0.421875 0.171875,0 0.421875,-0.125 0.421875,-0.4375 0,-0.3125 -0.3125,-0.609375 -0.734375,-0.609375 -0.734375,0 -1.09375,0.671875 -1.21875,1.09375 z m 0,0"
             id="id-69032654-a60a-4c75-b1ed-73c90b300fae"
             style="stroke-width:0.407137" />
        </g>
        <g
           transform="translate(220.667,133.171)"
           id="g1489"
           style="stroke-width:0.407137">
          <path
             d="M 1.109375,-2.515625 C 1.171875,-4 2.015625,-4.25 2.359375,-4.25 c 1.015625,0 1.125,1.34375 1.125,1.734375 z m 0,0.21875 h 2.78125 c 0.21875,0 0.25,0 0.25,-0.21875 0,-0.984375 -0.546875,-1.953125 -1.78125,-1.953125 -1.15625,0 -2.078125,1.03125 -2.078125,2.28125 0,1.328125 1.046875,2.296875 2.1875,2.296875 C 3.6875,0.109375 4.140625,-1 4.140625,-1.1875 4.140625,-1.28125 4.0625,-1.3125 4,-1.3125 c -0.078125,0 -0.109375,0.0625 -0.125,0.140625 -0.34375,1.03125 -1.25,1.03125 -1.34375,1.03125 -0.5,0 -0.890625,-0.296875 -1.125,-0.671875 -0.296875,-0.46875 -0.296875,-1.125 -0.296875,-1.484375 z m 0,0"
             id="id-1de3ed73-c0b4-43dc-8d11-d3eb3bb90bd8"
             style="stroke-width:0.407137" />
        </g>
        <g
           transform="translate(225.094,133.171)"
           id="g1492"
           style="stroke-width:0.407137">
          <path
             d="m 2.078125,-1.9375 c 0.21875,0.046875 1.03125,0.203125 1.03125,0.921875 0,0.5 -0.34375,0.90625 -1.125,0.90625 -0.84375,0 -1.203125,-0.5625 -1.390625,-1.421875 C 0.5625,-1.65625 0.5625,-1.6875 0.453125,-1.6875 c -0.125,0 -0.125,0.0625 -0.125,0.234375 V -0.125 c 0,0.171875 0,0.234375 0.109375,0.234375 0.046875,0 0.0625,-0.015625 0.25,-0.203125 0.015625,-0.015625 0.015625,-0.03125 0.203125,-0.21875 0.4375,0.40625 0.890625,0.421875 1.09375,0.421875 1.140625,0 1.609375,-0.671875 1.609375,-1.390625 0,-0.515625 -0.296875,-0.828125 -0.421875,-0.9375 C 2.84375,-2.546875 2.453125,-2.625 2.03125,-2.703125 1.46875,-2.8125 0.8125,-2.9375 0.8125,-3.515625 c 0,-0.359375 0.25,-0.765625 1.109375,-0.765625 1.09375,0 1.15625,0.90625 1.171875,1.203125 0,0.09375 0.09375,0.09375 0.109375,0.09375 0.140625,0 0.140625,-0.046875 0.140625,-0.234375 v -1.015625 c 0,-0.15625 0,-0.234375 -0.109375,-0.234375 -0.046875,0 -0.078125,0 -0.203125,0.125 -0.03125,0.03125 -0.125,0.125 -0.171875,0.15625 -0.375,-0.28125 -0.78125,-0.28125 -0.9375,-0.28125 -1.21875,0 -1.59375,0.671875 -1.59375,1.234375 0,0.34375 0.15625,0.625 0.421875,0.84375 0.328125,0.25 0.609375,0.3125 1.328125,0.453125 z m 0,0"
             id="id-50e5974d-2395-458d-9fdf-5a3bc6ee8bc1"
             style="stroke-width:0.407137" />
        </g>
      </g>
      <g
         fill="#000000"
         fill-opacity="1"
         id="id-d5b85090-b487-40ac-a606-586aa3d3b37d"
         transform="translate(-154.971,-127.046)"
         style="stroke-width:0.105538">
        <g
           transform="translate(154.69,145.126)"
           id="g1496"
           style="stroke-width:0.407137">
          <path
             d="m 4.578125,-3.1875 c 0,-0.796875 -0.046875,-1.59375 -0.390625,-2.328125 -0.453125,-0.96875 -1.28125,-1.125 -1.6875,-1.125 -0.609375,0 -1.328125,0.265625 -1.75,1.1875 -0.3125,0.6875 -0.359375,1.46875 -0.359375,2.265625 0,0.75 0.03125,1.640625 0.453125,2.40625 0.421875,0.796875 1.15625,1 1.640625,1 0.53125,0 1.296875,-0.203125 1.734375,-1.15625 0.3125,-0.6875 0.359375,-1.46875 0.359375,-2.25 z M 2.484375,0 C 2.09375,0 1.5,-0.25 1.328125,-1.203125 1.21875,-1.796875 1.21875,-2.71875 1.21875,-3.3125 c 0,-0.640625 0,-1.296875 0.078125,-1.828125 0.1875,-1.1875 0.9375,-1.28125 1.1875,-1.28125 0.328125,0 0.984375,0.1875 1.171875,1.171875 0.109375,0.5625 0.109375,1.3125 0.109375,1.9375 0,0.75 0,1.421875 -0.109375,2.0625 C 3.5,-0.296875 2.9375,0 2.484375,0 Z m 0,0"
             id="id-f79ae25a-9e01-4c27-ad0f-d3cd6f254fc5"
             style="stroke-width:0.407137" />
        </g>
      </g>
      <g
         fill="#000000"
         fill-opacity="1"
         id="id-1602ff9f-fb9b-4880-bb0e-2cf9dc754990"
         transform="translate(-154.971,-127.046)"
         style="stroke-width:0.105538">
        <g
           transform="translate(211.307,145.126)"
           id="g1500"
           style="stroke-width:0.407137">
          <path
             d="m 3.65625,-3.171875 v 0.328125 c 0,2.328125 -1.03125,2.78125 -1.609375,2.78125 -0.171875,0 -0.71875,-0.015625 -0.984375,-0.359375 0.4375,0 0.515625,-0.28125 0.515625,-0.453125 0,-0.3125 -0.234375,-0.453125 -0.453125,-0.453125 -0.15625,0 -0.453125,0.078125 -0.453125,0.46875 0,0.671875 0.53125,1.078125 1.375,1.078125 1.296875,0 2.515625,-1.359375 2.515625,-3.5 0,-2.6875 -1.15625,-3.359375 -2.046875,-3.359375 -0.546875,0 -1.03125,0.1875 -1.453125,0.625 -0.421875,0.453125 -0.640625,0.875 -0.640625,1.625 0,1.234375 0.875,2.21875 1.984375,2.21875 0.609375,0 1.015625,-0.421875 1.25,-1 z M 2.421875,-2.40625 c -0.15625,0 -0.625,0 -0.921875,-0.625 -0.1875,-0.375 -0.1875,-0.859375 -0.1875,-1.359375 0,-0.53125 0,-1 0.21875,-1.375 0.265625,-0.5 0.640625,-0.625 0.984375,-0.625 0.46875,0 0.796875,0.34375 0.96875,0.78125 0.109375,0.328125 0.15625,0.953125 0.15625,1.40625 0,0.828125 -0.34375,1.796875 -1.21875,1.796875 z m 0,0"
             id="id-bfd5d0fa-d541-4ab5-a206-c87849485e34"
             style="stroke-width:0.407137" />
        </g>
        <g
           transform="translate(216.289,145.126)"
           id="g1503"
           style="stroke-width:0.407137">
          <path
             d="m 4.75,-6.078125 c 0.078125,-0.109375 0.078125,-0.125 0.078125,-0.34375 H 2.40625 c -1.203125,0 -1.234375,-0.125 -1.265625,-0.3125 h -0.25 L 0.5625,-4.6875 h 0.25 c 0.03125,-0.15625 0.109375,-0.78125 0.25,-0.90625 0.0625,-0.0625 0.84375,-0.0625 0.96875,-0.0625 h 2.0625 C 3.984375,-5.5 3.203125,-4.40625 2.984375,-4.078125 2.078125,-2.734375 1.75,-1.34375 1.75,-0.328125 c 0,0.09375 0,0.546875 0.46875,0.546875 0.453125,0 0.453125,-0.453125 0.453125,-0.546875 V -0.84375 c 0,-0.546875 0.03125,-1.09375 0.109375,-1.625 0.046875,-0.234375 0.171875,-1.09375 0.625,-1.703125 z m 0,0"
             id="id-0fefa217-19b8-41f0-9f93-391c1f30972c"
             style="stroke-width:0.407137" />
        </g>
        <g
           transform="translate(221.27,145.126)"
           id="g1506"
           style="stroke-width:0.407137">
          <path
             d="m 1.90625,-0.53125 c 0,-0.28125 -0.234375,-0.53125 -0.515625,-0.53125 -0.296875,0 -0.53125,0.25 -0.53125,0.53125 C 0.859375,-0.234375 1.09375,0 1.390625,0 1.671875,0 1.90625,-0.234375 1.90625,-0.53125 Z m 0,0"
             id="id-dbb418c4-c2aa-48e7-8c1f-9d182307c85c"
             style="stroke-width:0.407137" />
        </g>
        <g
           transform="translate(224.038,145.126)"
           id="g1509"
           style="stroke-width:0.407137">
          <path
             d="m 4.46875,-2 c 0,-1.1875 -0.8125,-2.1875 -1.890625,-2.1875 -0.46875,0 -0.90625,0.15625 -1.265625,0.515625 V -5.625 c 0.203125,0.0625 0.53125,0.125 0.84375,0.125 1.234375,0 1.9375,-0.90625 1.9375,-1.03125 0,-0.0625 -0.03125,-0.109375 -0.109375,-0.109375 0,0 -0.03125,0 -0.078125,0.03125 C 3.703125,-6.515625 3.21875,-6.3125 2.546875,-6.3125 2.15625,-6.3125 1.6875,-6.390625 1.21875,-6.59375 1.140625,-6.625 1.125,-6.625 1.109375,-6.625 1,-6.625 1,-6.546875 1,-6.390625 V -3.4375 c 0,0.171875 0,0.25 0.140625,0.25 0.078125,0 0.09375,-0.015625 0.140625,-0.078125 C 1.390625,-3.421875 1.75,-3.96875 2.5625,-3.96875 c 0.515625,0 0.765625,0.453125 0.84375,0.640625 0.15625,0.375 0.1875,0.75 0.1875,1.25 0,0.359375 0,0.953125 -0.25,1.375 C 3.109375,-0.3125 2.734375,-0.0625 2.28125,-0.0625 c -0.71875,0 -1.296875,-0.53125 -1.46875,-1.109375 0.03125,0 0.0625,0.015625 0.171875,0.015625 0.328125,0 0.5,-0.25 0.5,-0.484375 0,-0.25 -0.171875,-0.5 -0.5,-0.5 C 0.84375,-2.140625 0.5,-2.0625 0.5,-1.609375 0.5,-0.75 1.1875,0.21875 2.296875,0.21875 3.453125,0.21875 4.46875,-0.734375 4.46875,-2 Z m 0,0"
             id="id-b040582b-8df1-4222-a2b6-10725facf43f"
             style="stroke-width:0.407137" />
        </g>
      </g>
      <g
         fill="#000000"
         fill-opacity="1"
         id="id-bde55e59-85e7-4fc5-9060-fc56b5afdc24"
         transform="translate(-154.971,-127.046)"
         style="stroke-width:0.105538">
        <g
           transform="translate(154.69,157.081)"
           id="g1513"
           style="stroke-width:0.407137">
          <path
             d="m 2.9375,-6.375 c 0,-0.25 0,-0.265625 -0.234375,-0.265625 C 2.078125,-6 1.203125,-6 0.890625,-6 v 0.3125 c 0.203125,0 0.78125,0 1.296875,-0.265625 v 5.171875 c 0,0.359375 -0.03125,0.46875 -0.921875,0.46875 h -0.3125 V 0 c 0.34375,-0.03125 1.203125,-0.03125 1.609375,-0.03125 0.390625,0 1.265625,0 1.609375,0.03125 v -0.3125 h -0.3125 c -0.90625,0 -0.921875,-0.109375 -0.921875,-0.46875 z m 0,0"
             id="id-796b3c14-2722-48ff-a9fe-d10c10acb83e"
             style="stroke-width:0.407137" />
        </g>
      </g>
      <g
         fill="#000000"
         fill-opacity="1"
         id="id-f648892c-d4f5-4686-ba60-883a5ce74ddb"
         transform="translate(-154.971,-127.046)"
         style="stroke-width:0.105538">
        <g
           transform="translate(211.307,157.081)"
           id="g1517"
           style="stroke-width:0.407137">
          <path
             d="m 3.65625,-3.171875 v 0.328125 c 0,2.328125 -1.03125,2.78125 -1.609375,2.78125 -0.171875,0 -0.71875,-0.015625 -0.984375,-0.359375 0.4375,0 0.515625,-0.28125 0.515625,-0.453125 0,-0.3125 -0.234375,-0.453125 -0.453125,-0.453125 -0.15625,0 -0.453125,0.078125 -0.453125,0.46875 0,0.671875 0.53125,1.078125 1.375,1.078125 1.296875,0 2.515625,-1.359375 2.515625,-3.5 0,-2.6875 -1.15625,-3.359375 -2.046875,-3.359375 -0.546875,0 -1.03125,0.1875 -1.453125,0.625 -0.421875,0.453125 -0.640625,0.875 -0.640625,1.625 0,1.234375 0.875,2.21875 1.984375,2.21875 0.609375,0 1.015625,-0.421875 1.25,-1 z M 2.421875,-2.40625 c -0.15625,0 -0.625,0 -0.921875,-0.625 -0.1875,-0.375 -0.1875,-0.859375 -0.1875,-1.359375 0,-0.53125 0,-1 0.21875,-1.375 0.265625,-0.5 0.640625,-0.625 0.984375,-0.625 0.46875,0 0.796875,0.34375 0.96875,0.78125 0.109375,0.328125 0.15625,0.953125 0.15625,1.40625 0,0.828125 -0.34375,1.796875 -1.21875,1.796875 z m 0,0"
             id="id-fd9c33d2-a5c9-4a26-9403-d5fc8f1989a0"
             style="stroke-width:0.407137" />
        </g>
        <g
           transform="translate(216.289,157.081)"
           id="g1520"
           style="stroke-width:0.407137">
          <path
             d="m 1.625,-4.5625 c -0.453125,-0.296875 -0.5,-0.625 -0.5,-0.796875 0,-0.609375 0.65625,-1.03125 1.359375,-1.03125 0.71875,0 1.359375,0.515625 1.359375,1.234375 0,0.578125 -0.390625,1.046875 -0.984375,1.390625 z m 1.453125,0.953125 C 3.796875,-3.984375 4.28125,-4.5 4.28125,-5.15625 c 0,-0.921875 -0.875,-1.484375 -1.78125,-1.484375 -1,0 -1.8125,0.734375 -1.8125,1.671875 0,0.171875 0.015625,0.625 0.4375,1.09375 0.109375,0.109375 0.484375,0.359375 0.734375,0.53125 C 1.28125,-3.046875 0.421875,-2.5 0.421875,-1.5 c 0,1.046875 1.015625,1.71875 2.0625,1.71875 1.125,0 2.078125,-0.828125 2.078125,-1.890625 0,-0.359375 -0.109375,-0.8125 -0.5,-1.234375 C 3.875,-3.109375 3.71875,-3.203125 3.078125,-3.609375 Z m -1,0.421875 1.234375,0.78125 c 0.28125,0.1875 0.75,0.484375 0.75,1.09375 0,0.734375 -0.75,1.25 -1.5625,1.25 -0.859375,0 -1.578125,-0.609375 -1.578125,-1.4375 0,-0.578125 0.3125,-1.21875 1.15625,-1.6875 z m 0,0"
             id="id-718e46ae-1342-4477-87bd-c4f86f987d00"
             style="stroke-width:0.407137" />
        </g>
        <g
           transform="translate(221.27,157.081)"
           id="g1523"
           style="stroke-width:0.407137">
          <path
             d="m 1.90625,-0.53125 c 0,-0.28125 -0.234375,-0.53125 -0.515625,-0.53125 -0.296875,0 -0.53125,0.25 -0.53125,0.53125 C 0.859375,-0.234375 1.09375,0 1.390625,0 1.671875,0 1.90625,-0.234375 1.90625,-0.53125 Z m 0,0"
             id="id-4966cfff-6bec-4a85-982d-3c458bc4fb83"
             style="stroke-width:0.407137" />
        </g>
        <g
           transform="translate(224.038,157.081)"
           id="g1526"
           style="stroke-width:0.407137">
          <path
             d="m 1.265625,-0.765625 1.0625,-1.03125 c 1.546875,-1.375 2.140625,-1.90625 2.140625,-2.90625 0,-1.140625 -0.890625,-1.9375 -2.109375,-1.9375 -1.125,0 -1.859375,0.921875 -1.859375,1.8125 0,0.546875 0.5,0.546875 0.53125,0.546875 0.171875,0 0.515625,-0.109375 0.515625,-0.53125 0,-0.25 -0.1875,-0.515625 -0.53125,-0.515625 -0.078125,0 -0.09375,0 -0.125,0.015625 0.21875,-0.65625 0.765625,-1.015625 1.34375,-1.015625 0.90625,0 1.328125,0.8125 1.328125,1.625 C 3.5625,-3.90625 3.078125,-3.125 2.515625,-2.5 l -1.90625,2.125 C 0.5,-0.265625 0.5,-0.234375 0.5,0 H 4.203125 L 4.46875,-1.734375 H 4.234375 C 4.171875,-1.4375 4.109375,-1 4,-0.84375 3.9375,-0.765625 3.28125,-0.765625 3.0625,-0.765625 Z m 0,0"
             id="id-c372bf8a-eb69-42ea-b5ab-6ce1a39bcb29"
             style="stroke-width:0.407137" />
        </g>
      </g>
      <g
         fill="#000000"
         fill-opacity="1"
         id="id-86a9ab38-092b-40e7-ba66-234bc2f06f45"
         transform="translate(-154.971,-127.046)"
         style="stroke-width:0.105538">
        <g
           transform="translate(154.69,169.036)"
           id="g1530"
           style="stroke-width:0.407137">
          <path
             d="m 1.265625,-0.765625 1.0625,-1.03125 c 1.546875,-1.375 2.140625,-1.90625 2.140625,-2.90625 0,-1.140625 -0.890625,-1.9375 -2.109375,-1.9375 -1.125,0 -1.859375,0.921875 -1.859375,1.8125 0,0.546875 0.5,0.546875 0.53125,0.546875 0.171875,0 0.515625,-0.109375 0.515625,-0.53125 0,-0.25 -0.1875,-0.515625 -0.53125,-0.515625 -0.078125,0 -0.09375,0 -0.125,0.015625 0.21875,-0.65625 0.765625,-1.015625 1.34375,-1.015625 0.90625,0 1.328125,0.8125 1.328125,1.625 C 3.5625,-3.90625 3.078125,-3.125 2.515625,-2.5 l -1.90625,2.125 C 0.5,-0.265625 0.5,-0.234375 0.5,0 H 4.203125 L 4.46875,-1.734375 H 4.234375 C 4.171875,-1.4375 4.109375,-1 4,-0.84375 3.9375,-0.765625 3.28125,-0.765625 3.0625,-0.765625 Z m 0,0"
             id="id-1881b387-0d19-448a-9dda-9b50db0ca360"
             style="stroke-width:0.407137" />
        </g>
      </g>
      <g
         fill="#000000"
         fill-opacity="1"
         id="id-51c9a086-5571-4bc9-88e9-158f87f6447c"
         transform="translate(-154.971,-127.046)"
         style="stroke-width:0.105538">
        <g
           transform="translate(211.307,169.036)"
           id="g1534"
           style="stroke-width:0.407137">
          <path
             d="m 3.65625,-3.171875 v 0.328125 c 0,2.328125 -1.03125,2.78125 -1.609375,2.78125 -0.171875,0 -0.71875,-0.015625 -0.984375,-0.359375 0.4375,0 0.515625,-0.28125 0.515625,-0.453125 0,-0.3125 -0.234375,-0.453125 -0.453125,-0.453125 -0.15625,0 -0.453125,0.078125 -0.453125,0.46875 0,0.671875 0.53125,1.078125 1.375,1.078125 1.296875,0 2.515625,-1.359375 2.515625,-3.5 0,-2.6875 -1.15625,-3.359375 -2.046875,-3.359375 -0.546875,0 -1.03125,0.1875 -1.453125,0.625 -0.421875,0.453125 -0.640625,0.875 -0.640625,1.625 0,1.234375 0.875,2.21875 1.984375,2.21875 0.609375,0 1.015625,-0.421875 1.25,-1 z M 2.421875,-2.40625 c -0.15625,0 -0.625,0 -0.921875,-0.625 -0.1875,-0.375 -0.1875,-0.859375 -0.1875,-1.359375 0,-0.53125 0,-1 0.21875,-1.375 0.265625,-0.5 0.640625,-0.625 0.984375,-0.625 0.46875,0 0.796875,0.34375 0.96875,0.78125 0.109375,0.328125 0.15625,0.953125 0.15625,1.40625 0,0.828125 -0.34375,1.796875 -1.21875,1.796875 z m 0,0"
             id="id-d2e1f9c1-7444-4924-9601-77ad66911a00"
             style="stroke-width:0.407137" />
        </g>
        <g
           transform="translate(216.289,169.036)"
           id="g1537"
           style="stroke-width:0.407137">
          <path
             d="m 3.65625,-3.171875 v 0.328125 c 0,2.328125 -1.03125,2.78125 -1.609375,2.78125 -0.171875,0 -0.71875,-0.015625 -0.984375,-0.359375 0.4375,0 0.515625,-0.28125 0.515625,-0.453125 0,-0.3125 -0.234375,-0.453125 -0.453125,-0.453125 -0.15625,0 -0.453125,0.078125 -0.453125,0.46875 0,0.671875 0.53125,1.078125 1.375,1.078125 1.296875,0 2.515625,-1.359375 2.515625,-3.5 0,-2.6875 -1.15625,-3.359375 -2.046875,-3.359375 -0.546875,0 -1.03125,0.1875 -1.453125,0.625 -0.421875,0.453125 -0.640625,0.875 -0.640625,1.625 0,1.234375 0.875,2.21875 1.984375,2.21875 0.609375,0 1.015625,-0.421875 1.25,-1 z M 2.421875,-2.40625 c -0.15625,0 -0.625,0 -0.921875,-0.625 -0.1875,-0.375 -0.1875,-0.859375 -0.1875,-1.359375 0,-0.53125 0,-1 0.21875,-1.375 0.265625,-0.5 0.640625,-0.625 0.984375,-0.625 0.46875,0 0.796875,0.34375 0.96875,0.78125 0.109375,0.328125 0.15625,0.953125 0.15625,1.40625 0,0.828125 -0.34375,1.796875 -1.21875,1.796875 z m 0,0"
             id="id-6fc271d1-9d3c-45b2-a17a-b5992e12255e"
             style="stroke-width:0.407137" />
        </g>
        <g
           transform="translate(221.27,169.036)"
           id="g1540"
           style="stroke-width:0.407137">
          <path
             d="m 1.90625,-0.53125 c 0,-0.28125 -0.234375,-0.53125 -0.515625,-0.53125 -0.296875,0 -0.53125,0.25 -0.53125,0.53125 C 0.859375,-0.234375 1.09375,0 1.390625,0 1.671875,0 1.90625,-0.234375 1.90625,-0.53125 Z m 0,0"
             id="id-cf513bde-0484-43fb-a794-787afa605a12"
             style="stroke-width:0.407137" />
        </g>
        <g
           transform="translate(224.038,169.036)"
           id="g1543"
           style="stroke-width:0.407137">
          <path
             d="m 4.46875,-2 c 0,-1.1875 -0.8125,-2.1875 -1.890625,-2.1875 -0.46875,0 -0.90625,0.15625 -1.265625,0.515625 V -5.625 c 0.203125,0.0625 0.53125,0.125 0.84375,0.125 1.234375,0 1.9375,-0.90625 1.9375,-1.03125 0,-0.0625 -0.03125,-0.109375 -0.109375,-0.109375 0,0 -0.03125,0 -0.078125,0.03125 C 3.703125,-6.515625 3.21875,-6.3125 2.546875,-6.3125 2.15625,-6.3125 1.6875,-6.390625 1.21875,-6.59375 1.140625,-6.625 1.125,-6.625 1.109375,-6.625 1,-6.625 1,-6.546875 1,-6.390625 V -3.4375 c 0,0.171875 0,0.25 0.140625,0.25 0.078125,0 0.09375,-0.015625 0.140625,-0.078125 C 1.390625,-3.421875 1.75,-3.96875 2.5625,-3.96875 c 0.515625,0 0.765625,0.453125 0.84375,0.640625 0.15625,0.375 0.1875,0.75 0.1875,1.25 0,0.359375 0,0.953125 -0.25,1.375 C 3.109375,-0.3125 2.734375,-0.0625 2.28125,-0.0625 c -0.71875,0 -1.296875,-0.53125 -1.46875,-1.109375 0.03125,0 0.0625,0.015625 0.171875,0.015625 0.328125,0 0.5,-0.25 0.5,-0.484375 0,-0.25 -0.171875,-0.5 -0.5,-0.5 C 0.84375,-2.140625 0.5,-2.0625 0.5,-1.609375 0.5,-0.75 1.1875,0.21875 2.296875,0.21875 3.453125,0.21875 4.46875,-0.734375 4.46875,-2 Z m 0,0"
             id="id-7885eccc-e285-4f3b-bf94-56ee19b866cb"
             style="stroke-width:0.407137" />
        </g>
      </g>
      <g
         fill="#000000"
         fill-opacity="1"
         id="id-46e2aaab-0aaa-4894-b7e0-6003a4d35e5f"
         transform="translate(-154.971,-127.046)"
         style="stroke-width:0.105538">
        <g
           transform="translate(154.69,180.991)"
           id="g1547"
           style="stroke-width:0.407137">
          <path
             d="m 2.890625,-3.515625 c 0.8125,-0.265625 1.390625,-0.953125 1.390625,-1.75 0,-0.8125 -0.875,-1.375 -1.828125,-1.375 -1,0 -1.765625,0.59375 -1.765625,1.359375 0,0.328125 0.21875,0.515625 0.515625,0.515625 0.296875,0 0.5,-0.21875 0.5,-0.515625 0,-0.484375 -0.46875,-0.484375 -0.609375,-0.484375 0.296875,-0.5 0.953125,-0.625 1.3125,-0.625 0.421875,0 0.96875,0.21875 0.96875,1.109375 0,0.125 -0.03125,0.703125 -0.28125,1.140625 C 2.796875,-3.65625 2.453125,-3.625 2.203125,-3.625 2.125,-3.609375 1.890625,-3.59375 1.8125,-3.59375 c -0.078125,0.015625 -0.140625,0.03125 -0.140625,0.125 0,0.109375 0.0625,0.109375 0.234375,0.109375 h 0.4375 c 0.8125,0 1.1875,0.671875 1.1875,1.65625 0,1.359375 -0.6875,1.640625 -1.125,1.640625 -0.4375,0 -1.1875,-0.171875 -1.53125,-0.75 0.34375,0.046875 0.65625,-0.171875 0.65625,-0.546875 0,-0.359375 -0.265625,-0.5625 -0.546875,-0.5625 -0.25,0 -0.5625,0.140625 -0.5625,0.578125 0,0.90625 0.921875,1.5625 2.015625,1.5625 1.21875,0 2.125,-0.90625 2.125,-1.921875 0,-0.8125 -0.640625,-1.59375 -1.671875,-1.8125 z m 0,0"
             id="id-b4d572a7-73b0-4996-af4f-6432167361f8"
             style="stroke-width:0.407137" />
        </g>
      </g>
      <g
         fill="#000000"
         fill-opacity="1"
         id="id-26c6658b-dfbc-4eb1-97d1-382620b84761"
         transform="translate(-154.971,-127.046)"
         style="stroke-width:0.105538">
        <g
           transform="translate(211.307,180.991)"
           id="g1551"
           style="stroke-width:0.407137">
          <path
             d="m 3.65625,-3.171875 v 0.328125 c 0,2.328125 -1.03125,2.78125 -1.609375,2.78125 -0.171875,0 -0.71875,-0.015625 -0.984375,-0.359375 0.4375,0 0.515625,-0.28125 0.515625,-0.453125 0,-0.3125 -0.234375,-0.453125 -0.453125,-0.453125 -0.15625,0 -0.453125,0.078125 -0.453125,0.46875 0,0.671875 0.53125,1.078125 1.375,1.078125 1.296875,0 2.515625,-1.359375 2.515625,-3.5 0,-2.6875 -1.15625,-3.359375 -2.046875,-3.359375 -0.546875,0 -1.03125,0.1875 -1.453125,0.625 -0.421875,0.453125 -0.640625,0.875 -0.640625,1.625 0,1.234375 0.875,2.21875 1.984375,2.21875 0.609375,0 1.015625,-0.421875 1.25,-1 z M 2.421875,-2.40625 c -0.15625,0 -0.625,0 -0.921875,-0.625 -0.1875,-0.375 -0.1875,-0.859375 -0.1875,-1.359375 0,-0.53125 0,-1 0.21875,-1.375 0.265625,-0.5 0.640625,-0.625 0.984375,-0.625 0.46875,0 0.796875,0.34375 0.96875,0.78125 0.109375,0.328125 0.15625,0.953125 0.15625,1.40625 0,0.828125 -0.34375,1.796875 -1.21875,1.796875 z m 0,0"
             id="id-d55db81f-c751-4106-b519-09d18f22f7a1"
             style="stroke-width:0.407137" />
        </g>
        <g
           transform="translate(216.289,180.991)"
           id="g1554"
           style="stroke-width:0.407137">
          <path
             d="m 1.625,-4.5625 c -0.453125,-0.296875 -0.5,-0.625 -0.5,-0.796875 0,-0.609375 0.65625,-1.03125 1.359375,-1.03125 0.71875,0 1.359375,0.515625 1.359375,1.234375 0,0.578125 -0.390625,1.046875 -0.984375,1.390625 z m 1.453125,0.953125 C 3.796875,-3.984375 4.28125,-4.5 4.28125,-5.15625 c 0,-0.921875 -0.875,-1.484375 -1.78125,-1.484375 -1,0 -1.8125,0.734375 -1.8125,1.671875 0,0.171875 0.015625,0.625 0.4375,1.09375 0.109375,0.109375 0.484375,0.359375 0.734375,0.53125 C 1.28125,-3.046875 0.421875,-2.5 0.421875,-1.5 c 0,1.046875 1.015625,1.71875 2.0625,1.71875 1.125,0 2.078125,-0.828125 2.078125,-1.890625 0,-0.359375 -0.109375,-0.8125 -0.5,-1.234375 C 3.875,-3.109375 3.71875,-3.203125 3.078125,-3.609375 Z m -1,0.421875 1.234375,0.78125 c 0.28125,0.1875 0.75,0.484375 0.75,1.09375 0,0.734375 -0.75,1.25 -1.5625,1.25 -0.859375,0 -1.578125,-0.609375 -1.578125,-1.4375 0,-0.578125 0.3125,-1.21875 1.15625,-1.6875 z m 0,0"
             id="id-6309a79c-abcf-4e05-ae16-444c72a51cb5"
             style="stroke-width:0.407137" />
        </g>
        <g
           transform="translate(221.27,180.991)"
           id="g1557"
           style="stroke-width:0.407137">
          <path
             d="m 1.90625,-0.53125 c 0,-0.28125 -0.234375,-0.53125 -0.515625,-0.53125 -0.296875,0 -0.53125,0.25 -0.53125,0.53125 C 0.859375,-0.234375 1.09375,0 1.390625,0 1.671875,0 1.90625,-0.234375 1.90625,-0.53125 Z m 0,0"
             id="id-43e0a321-701b-4ddf-a60f-0137381a6461"
             style="stroke-width:0.407137" />
        </g>
        <g
           transform="translate(224.038,180.991)"
           id="g1560"
           style="stroke-width:0.407137">
          <path
             d="m 2.9375,-6.375 c 0,-0.25 0,-0.265625 -0.234375,-0.265625 C 2.078125,-6 1.203125,-6 0.890625,-6 v 0.3125 c 0.203125,0 0.78125,0 1.296875,-0.265625 v 5.171875 c 0,0.359375 -0.03125,0.46875 -0.921875,0.46875 h -0.3125 V 0 c 0.34375,-0.03125 1.203125,-0.03125 1.609375,-0.03125 0.390625,0 1.265625,0 1.609375,0.03125 v -0.3125 h -0.3125 c -0.90625,0 -0.921875,-0.109375 -0.921875,-0.46875 z m 0,0"
             id="id-7c9b979f-045f-4151-b19f-fbad19cc8e00"
             style="stroke-width:0.407137" />
        </g>
      </g>
      <g
         fill="#000000"
         fill-opacity="1"
         id="id-dac734d7-382b-4be6-b40c-340262611fa1"
         transform="translate(-154.971,-127.046)"
         style="stroke-width:0.105538">
        <g
           transform="translate(154.69,192.946)"
           id="g1564"
           style="stroke-width:0.407137">
          <path
             d="m 2.9375,-1.640625 v 0.859375 c 0,0.359375 -0.03125,0.46875 -0.765625,0.46875 H 1.96875 V 0 C 2.375,-0.03125 2.890625,-0.03125 3.3125,-0.03125 c 0.421875,0 0.9375,0 1.359375,0.03125 v -0.3125 h -0.21875 c -0.734375,0 -0.75,-0.109375 -0.75,-0.46875 V -1.640625 H 4.6875 v -0.3125 H 3.703125 v -4.53125 c 0,-0.203125 0,-0.265625 -0.171875,-0.265625 -0.078125,0 -0.109375,0 -0.1875,0.125 l -3.0625,4.671875 v 0.3125 z m 0.046875,-0.3125 H 0.5625 l 2.421875,-3.71875 z m 0,0"
             id="id-b0d952c7-34c9-4108-a90a-94cb2cfa4ee9"
             style="stroke-width:0.407137" />
        </g>
      </g>
      <g
         fill="#000000"
         fill-opacity="1"
         id="id-51b9cf5c-50c2-4bc7-af5e-4546a836c1f2"
         transform="translate(-154.971,-127.046)"
         style="stroke-width:0.105538">
        <g
           transform="translate(211.307,192.946)"
           id="g1568"
           style="stroke-width:0.407137">
          <path
             d="m 3.65625,-3.171875 v 0.328125 c 0,2.328125 -1.03125,2.78125 -1.609375,2.78125 -0.171875,0 -0.71875,-0.015625 -0.984375,-0.359375 0.4375,0 0.515625,-0.28125 0.515625,-0.453125 0,-0.3125 -0.234375,-0.453125 -0.453125,-0.453125 -0.15625,0 -0.453125,0.078125 -0.453125,0.46875 0,0.671875 0.53125,1.078125 1.375,1.078125 1.296875,0 2.515625,-1.359375 2.515625,-3.5 0,-2.6875 -1.15625,-3.359375 -2.046875,-3.359375 -0.546875,0 -1.03125,0.1875 -1.453125,0.625 -0.421875,0.453125 -0.640625,0.875 -0.640625,1.625 0,1.234375 0.875,2.21875 1.984375,2.21875 0.609375,0 1.015625,-0.421875 1.25,-1 z M 2.421875,-2.40625 c -0.15625,0 -0.625,0 -0.921875,-0.625 -0.1875,-0.375 -0.1875,-0.859375 -0.1875,-1.359375 0,-0.53125 0,-1 0.21875,-1.375 0.265625,-0.5 0.640625,-0.625 0.984375,-0.625 0.46875,0 0.796875,0.34375 0.96875,0.78125 0.109375,0.328125 0.15625,0.953125 0.15625,1.40625 0,0.828125 -0.34375,1.796875 -1.21875,1.796875 z m 0,0"
             id="id-949a0198-2294-4d83-904f-d262ed2091a7"
             style="stroke-width:0.407137" />
        </g>
        <g
           transform="translate(216.289,192.946)"
           id="g1571"
           style="stroke-width:0.407137">
          <path
             d="m 1.625,-4.5625 c -0.453125,-0.296875 -0.5,-0.625 -0.5,-0.796875 0,-0.609375 0.65625,-1.03125 1.359375,-1.03125 0.71875,0 1.359375,0.515625 1.359375,1.234375 0,0.578125 -0.390625,1.046875 -0.984375,1.390625 z m 1.453125,0.953125 C 3.796875,-3.984375 4.28125,-4.5 4.28125,-5.15625 c 0,-0.921875 -0.875,-1.484375 -1.78125,-1.484375 -1,0 -1.8125,0.734375 -1.8125,1.671875 0,0.171875 0.015625,0.625 0.4375,1.09375 0.109375,0.109375 0.484375,0.359375 0.734375,0.53125 C 1.28125,-3.046875 0.421875,-2.5 0.421875,-1.5 c 0,1.046875 1.015625,1.71875 2.0625,1.71875 1.125,0 2.078125,-0.828125 2.078125,-1.890625 0,-0.359375 -0.109375,-0.8125 -0.5,-1.234375 C 3.875,-3.109375 3.71875,-3.203125 3.078125,-3.609375 Z m -1,0.421875 1.234375,0.78125 c 0.28125,0.1875 0.75,0.484375 0.75,1.09375 0,0.734375 -0.75,1.25 -1.5625,1.25 -0.859375,0 -1.578125,-0.609375 -1.578125,-1.4375 0,-0.578125 0.3125,-1.21875 1.15625,-1.6875 z m 0,0"
             id="id-b6c529ae-c858-47ba-8422-ca3a6e2be5fe"
             style="stroke-width:0.407137" />
        </g>
        <g
           transform="translate(221.27,192.946)"
           id="g1574"
           style="stroke-width:0.407137">
          <path
             d="m 1.90625,-0.53125 c 0,-0.28125 -0.234375,-0.53125 -0.515625,-0.53125 -0.296875,0 -0.53125,0.25 -0.53125,0.53125 C 0.859375,-0.234375 1.09375,0 1.390625,0 1.671875,0 1.90625,-0.234375 1.90625,-0.53125 Z m 0,0"
             id="id-914f838e-bf4a-4796-a022-a0b36382b18a"
             style="stroke-width:0.407137" />
        </g>
        <g
           transform="translate(224.038,192.946)"
           id="g1577"
           style="stroke-width:0.407137">
          <path
             d="m 4.75,-6.078125 c 0.078125,-0.109375 0.078125,-0.125 0.078125,-0.34375 H 2.40625 c -1.203125,0 -1.234375,-0.125 -1.265625,-0.3125 h -0.25 L 0.5625,-4.6875 h 0.25 c 0.03125,-0.15625 0.109375,-0.78125 0.25,-0.90625 0.0625,-0.0625 0.84375,-0.0625 0.96875,-0.0625 h 2.0625 C 3.984375,-5.5 3.203125,-4.40625 2.984375,-4.078125 2.078125,-2.734375 1.75,-1.34375 1.75,-0.328125 c 0,0.09375 0,0.546875 0.46875,0.546875 0.453125,0 0.453125,-0.453125 0.453125,-0.546875 V -0.84375 c 0,-0.546875 0.03125,-1.09375 0.109375,-1.625 0.046875,-0.234375 0.171875,-1.09375 0.625,-1.703125 z m 0,0"
             id="id-b1b9e2dc-0abb-4283-bdb6-13ab270747d0"
             style="stroke-width:0.407137" />
        </g>
      </g>
    </g>
    <rect
       style="opacity:1;fill:none;stroke:#ff0000;stroke-width:0.264999;stroke-linecap:round;stroke-linejoin:round"
       id="rect1866"
       width="12.046994"
       height="54.083225"
       x="129.40248"
       y="104.16089" />
    <path
       style="opacity:1;fill:#ff0000;stroke:#ff0000;stroke-width:0.865;stroke-linecap:round;stroke-linejoin:round;marker-start:url(#TriangleStart);stroke-dasharray:none"
       d="m 146.55635,149.33935 9.03526,12.70238"
       id="path2132" />
    <text
       xml:space="preserve"
       style="font-size:7.79835px;opacity:1;fill:#ff0000;stroke:#ff0000;stroke-width:0.264999;stroke-linecap:round;stroke-linejoin:round"
       x="156.90495"
       y="164.39473"
       id="text2407"
       transform="scale(0.99997506,1.0000249)"><tspan
         sodipodi:role="line"
         id="tspan2405"
         style="stroke-width:0.264999"
         x="156.90495"
         y="164.39473">The index </tspan></text>
  </g>
</svg>
